Simulation
nRows=24
nColumns=15
endheader
time  TH_x TH_y TH_z SC_y  SC_z  SC_x  AC_y  AC_z  AC_x  GH_y  GH_z  GH_yy  EL_x  PS_y
0.0  0.000000  0.000000  0.000000  -29.083036572171277  -1.272585541334858  13.076022410757378  55.98222538489894  -7.781236639916074  -14.246640121946532  104.9884572807971  0.5996596342869529  -80.8705402308052  25.694997158407133  0.000000
0.015  0.000000  0.000000  0.000000  -29.16194218718014  -1.1491515867411093  13.10585842678686  55.89445091235534  -7.481527246375927  -14.289819345314323  75.27008905347707  0.5949689952364958  -51.26062102906488  25.623490377512933  0.000000
0.03  0.000000  0.000000  0.000000  -29.119613700458544  -1.053446681103547  13.14961894454374  55.853135644330415  -7.265046566693334  -14.355803359688577  50.1981376615527  0.7721650865885223  -26.266659671325705  25.579021014441526  0.000000
0.045  0.000000  0.000000  0.000000  -29.130383883260542  -0.9836487323671901  13.212463183262026  55.832794470570654  -7.131546179859416  -14.41900935879994  35.90328025407325  1.1044778158032815  -12.0792695654779  25.540357720085947  0.000000
0.06  0.000000  0.000000  0.000000  -29.15467398737466  -0.9347606037830797  13.293972900189205  55.80251937855125  -7.055789258052019  -14.484314551696917  29.052396762186376  1.5083441252555128  -5.400381362970846  25.50055611035309  0.000000
0.075  0.000000  0.000000  0.000000  -29.19250435055489  -0.8991736224023342  13.389278107591263  55.78705402261417  -7.028722027725669  -14.550677198637448  25.763926441714073  1.9637493165640119  -2.331261882394526  25.45162489815432  0.000000
0.09  0.000000  0.000000  0.000000  -29.23463956218938  -0.8695828270325499  13.498344498732813  55.77303393483287  -7.035381502059857  -14.615636748731445  24.120084521801708  2.447458192007908  -0.9551224921055695  25.40202037665004  0.000000
0.105  0.000000  0.000000  0.000000  -29.27888096570993  -0.8415852293643371  13.61915824639282  55.76544671682137  -7.069123247458797  -14.67669193873749  23.30374059898368  2.957171118564546  -0.44862211608208846  25.346186639821564  0.000000
0.12  0.000000  0.000000  0.000000  -29.323468784869874  -0.8135503525765186  13.749341469821355  55.76370574441347  -7.1203736173464565  -14.734442422065051  22.91661784060931  3.490071289657875  -0.41140865944186744  25.287871888594424  0.000000
0.135  0.000000  0.000000  0.000000  -29.369120978014656  -0.7834750309574965  13.887878829201155  55.76700900399912  -7.184393567090738  -14.786576862486479  22.735732509580835  4.045977770613892  -0.6175601251390992  25.224992504142026  0.000000
0.15  0.000000  0.000000  0.000000  -29.415419303259267  -0.7509060875548362  14.032434192066598  55.77674389399597  -7.254956654368681  -14.83487331847205  22.68266014715717  4.625297210013905  -0.9871103192629738  25.158898046709183  0.000000
0.16499999999999998  0.000000  0.000000  0.000000  -29.46375129986799  -0.7151658641100015  14.183159733503405  55.79168071082569  -7.328827188604419  -14.87747134011902  22.669880028019737  5.227735786836144  -1.4278898410882797  25.089274246405267  0.000000
0.18  0.000000  0.000000  0.000000  -29.512968366332004  -0.6762437846770788  14.338070523415963  55.81318362063753  -7.401903027912982  -14.915910870815706  22.68970462999865  5.853775422916177  -1.9301785708003232  25.016304764752928  0.000000
0.195  0.000000  0.000000  0.000000  -29.565002542822988  -0.634095788616673  14.497200248821429  55.84059424601355  -7.47195054962246  -14.948746838016413  22.70607761600869  6.503308618024926  -2.4533099100329676  24.9402644273656  0.000000
0.21  0.000000  0.000000  0.000000  -29.619168062557765  -0.5884621337384274  14.658708007154882  55.87487306427337  -7.535930212871616  -14.976719554495338  22.723674461412024  7.176354527637189  -2.9993691519052965  24.861580663065514  0.000000
0.22499999999999998  0.000000  0.000000  0.000000  -29.67704056818956  -0.5387844215792086  14.822579124461365  55.91576073751891  -7.592549303244012  -14.99839358889236  22.72691613399447  7.872435699924462  -3.5487205579854098  24.780573864481447  0.000000
0.24  0.000000  0.000000  0.000000  -29.738144890340692  -0.4849819306900848  14.987407321632928  55.964193343427986  -7.6397488142089545  -15.014096938536834  22.721969047297897  8.590858331837742  -4.1047728146603735  24.6973341445162  0.000000
0.255  0.000000  0.000000  0.000000  -29.80410224785542  -0.4270181170578338  15.153282733596978  56.01999435030281  -7.676509128097336  -15.022397670410808  22.70061409633662  9.330252063728029  -4.655496954288555  24.612055949903368  0.000000
0.27  0.000000  0.000000  0.000000  -29.87408648470578  -0.36452948337637747  15.318819779235014  56.08391495498016  -7.701477568427915  -15.02302394735718  22.671025744670878  10.089128912278543  -5.206491576209475  24.524556298045663  0.000000
0.285  0.000000  0.000000  0.000000  -29.949521360408948  -0.2970458933354804  15.484178214641588  56.15600461180733  -7.714186731744496  -15.014355007706316  22.630672582418452  10.865595000132917  -5.75171441978563  24.434928153797053  0.000000
0.3  0.000000  0.000000  0.000000  -30.029694643754834  -0.22406386455800079  15.64820373290461  56.23674970372518  -7.713717046115966  -14.995911434784336  22.585543289279162  11.65766717950683  -6.294706268939095  24.343266275216166  0.000000
0.315  0.000000  0.000000  0.000000  -30.115850591342333  -0.1448685549058934  15.811044926477457  56.32640522896942  -7.699741557056818  -14.966217751316314  22.534175271992844  12.462980429414358  -6.83082793287442  24.24971290232607  0.000000
0.32999999999999996  0.000000  0.000000  0.000000  -30.206354756648924  -0.05874192963719658  15.971677443012538  56.42531080470354  -7.671801650289786  -14.925117293359408  22.481104061362977  13.278903013132904  -7.3625295133249775  24.15412025718773  0.000000
0.345  0.000000  0.000000  0.000000  -30.302075893301907  0.034178038752572845  16.130489475719344  56.533149330535615  -7.6296053889151025  -14.872049421293077  22.42444201606891  14.10240191819588  -7.885071233259618  24.056485549261733  0.000000
